<svg xmlns="http://www.w3.org/2000/svg" viewBox="0 0 64 64" role="img" aria-label="Firefly favicon">
  <defs>
    <linearGradient id="bg" x1="0" y1="0" x2="1" y2="1">
      <stop offset="0%" stop-color="#1d2b39"/>
      <stop offset="100%" stop-color="#101a25"/>
    </linearGradient>
    <radialGradient id="halo" cx="50%" cy="46%" r="42%">
      <stop offset="0%" stop-color="#f8f1dd" stop-opacity="0.18"/>
      <stop offset="100%" stop-color="#f8f1dd" stop-opacity="0"/>
    </radialGradient>
  </defs>

  <rect width="64" height="64" rx="14" fill="url(#bg)"/>
  <circle cx="32" cy="32" r="20" fill="url(#halo)"/>

  <g fill="none" stroke="#f6f0e4" stroke-linecap="round" stroke-linejoin="round">
    <g stroke-width="2">
      <path d="M28.4 10.6c-1.3-2.3-2.7-3.7-4.3-4.6"/>
      <path d="M35.6 10.6c1.3-2.3 2.7-3.7 4.3-4.6"/>
    </g>

    <g stroke-width="2.2">
      <path d="M8.7 27.2 10.8 38.5"/>
      <path d="M10.2 26.9 17.5 30"/>
      <path d="M12.3 40.1 18.4 35.9"/>

      <path d="M55.3 27.2 53.2 38.5"/>
      <path d="M53.8 26.9 46.5 30"/>
      <path d="M51.7 40.1 45.6 35.9"/>
    </g>

    <g stroke-width="2.4">
      <path d="M39.2 45.7c1.2-1.3 2.2-3.1 2.7-5"/>
      <path d="M43.8 49c1.5-1.7 2.7-3.8 3.3-6"/>
    </g>
  </g>

  <g fill="#f6f0e4">
    <circle cx="8.2" cy="24.7" r="4.1"/>
    <circle cx="11.3" cy="41.6" r="4.1"/>
    <circle cx="55.8" cy="24.7" r="4.1"/>
    <circle cx="52.7" cy="41.6" r="4.1"/>

    <path d="M25.7 15.5c0-2.9 2.8-5.4 6.3-5.4s6.3 2.5 6.3 5.4v2.7H25.7z"/>

    <path d="M17.9 23.8c5.5-1.1 10.4.9 12 4.7-5 .9-10.2-1.2-12-4.7z"/>
    <path d="M46.1 23.8c-5.5-1.1-10.4.9-12 4.7 5 .9 10.2-1.2 12-4.7z"/>

    <path d="M27.7 33.1h8.6l3.5 3.8v4.4c0 3.3-4 7-7.8 9-3.8-2-7.8-5.7-7.8-9v-4.4z"/>
  </g>
</svg>
