<?xml version="1.0" encoding="UTF-8" standalone="no"?>
<!-- Created with Inkscape (http://www.inkscape.org/) -->

<svg
   width="114.97841mm"
   height="78.990646mm"
   viewBox="0 0 114.97841 78.990646"
   version="1.1"
   id="svg1"
   xml:space="preserve"
   xmlns="http://www.w3.org/2000/svg"
   xmlns:svg="http://www.w3.org/2000/svg"><defs
     id="defs1" /><g
     id="layer1"
     transform="translate(-47.12519,-109.30843)"><path
       style="fill:#000000;stroke-width:0.5"
       d="m 113.9261,188.21259 c -0.12331,-0.0496 -0.34132,-0.3167 -0.48447,-0.59352 -0.43279,-0.83693 -0.12102,-1.24389 2.0647,-2.69508 2.42519,-1.61018 4.08382,-3.11038 5.83259,-5.27547 2.30569,-2.85459 4.14108,-6.19449 5.23714,-9.53012 0.41823,-1.27282 0.84014,-1.7197 1.6236,-1.7197 0.51423,0 1.20828,0.70389 1.20828,1.22542 0,0.5799 -1.07296,3.45638 -2.03844,5.46482 -2.68474,5.58496 -7.49216,10.73588 -11.96272,12.81747 -0.9233,0.42991 -1.08834,0.46404 -1.48068,0.30618 z m -6.69907,-5.74132 c -0.84828,-0.90875 -0.45044,-1.53859 1.45851,-2.30901 2.79325,-1.12732 5.47436,-3.30318 7.62032,-6.18429 1.55397,-2.08633 2.6217,-4.23662 3.4939,-7.03635 0.67081,-2.15329 0.98105,-2.59986 1.80614,-2.59986 0.57969,0 1.27565,0.75478 1.27565,1.38348 0,0.7584 -1.29815,4.39587 -2.23339,6.25803 -1.24143,2.47184 -2.4155,4.09632 -4.36478,6.03924 -2.55254,2.54422 -5.94015,4.61016 -7.86572,4.79693 -0.66807,0.0648 -0.85659,0.01 -1.19063,-0.34817 z m -49.186687,-4.2571 c -1.535481,-0.50489 -3.065644,-1.92022 -3.715786,-3.43692 -1.204956,-2.81101 -0.15986,-5.91543 2.504621,-7.4399 0.521206,-0.2982 0.912452,-0.6378 0.869435,-0.75465 -0.122797,-0.33358 -1.858777,-8.81424 -3.553216,-17.35826 l -1.546325,-7.79718 -0.88619,-0.20836 c -1.897096,-0.44607 -3.312318,-1.52672 -4.100035,-3.13077 -0.432623,-0.88096 -0.490001,-1.19565 -0.487586,-2.67415 0.0023,-1.41709 0.06922,-1.81066 0.43353,-2.5502 0.573844,-1.1649 1.585301,-2.14549 2.800829,-2.71537 0.860415,-0.4034 1.224693,-0.46672 2.671932,-0.46446 1.480517,0.002 1.782717,0.0587 2.594537,0.48439 1.728419,0.90627 2.916156,2.53435 3.179227,4.3579 0.07781,0.53935 0.247648,0.99702 0.399846,1.07748 0.237928,0.12578 8.835801,3.51779 13.888094,5.4791 1.090014,0.42314 1.98135,0.80904 1.980747,0.85754 -6e-4,0.0485 -0.344442,0.48068 -0.764087,0.96037 l -0.76299,0.87217 -0.864979,-0.32498 c -0.475739,-0.17875 -3.835776,-1.50388 -7.46675,-2.94475 -3.630974,-1.44086 -6.657437,-2.61975 -6.725475,-2.61975 -0.06804,0 -0.221086,0.2351 -0.340106,0.52244 -0.272194,0.65713 -1.671588,1.97773 -2.59487,2.44875 l -0.701912,0.35809 2.165757,10.72668 c 1.191166,5.89967 2.352856,11.59937 2.581532,12.66599 l 0.415776,1.93932 0.837781,0.11984 c 0.918159,0.13133 2.029055,0.65007 2.823186,1.31828 0.435776,0.36669 0.55728,0.39645 0.826351,0.20241 0.173501,-0.12512 0.858197,-0.61876 1.521547,-1.09697 0.663351,-0.47821 2.812698,-2.04586 4.776327,-3.48368 1.963629,-1.43781 3.634189,-2.6142 3.712356,-2.6142 0.07817,0 0.627012,0.25907 1.219656,0.57571 l 1.077534,0.57572 -2.144057,1.53474 c -1.179231,0.8441 -2.828917,2.03362 -3.665969,2.64338 -0.837051,0.60975 -2.43706,1.77268 -3.555574,2.58429 -2.019499,1.46537 -2.032395,1.47928 -1.851681,1.99768 0.272002,0.78026 0.06807,3.09267 -0.3579,4.05834 -0.474801,1.07637 -1.805105,2.3768 -2.983096,2.9161 -1.151327,0.52709 -3.14913,0.68734 -4.212017,0.33784 z m 89.976617,0.0624 c -2.63654,-0.82306 -4.50397,-3.55412 -4.27299,-6.24912 0.0505,-0.58909 0.13877,-1.19013 0.19618,-1.33565 0.10237,-0.25951 -1.42879,-1.39469 -9.18392,-6.80882 l -2.50102,-1.74605 1.08991,-0.5647 c 0.59944,-0.31059 1.17498,-0.56856 1.27896,-0.57327 0.10399,-0.004 2.51646,1.65231 5.36104,3.68225 l 5.17197,3.6908 0.90077,-0.67526 c 0.88381,-0.66254 1.78949,-1.01472 2.84105,-1.10478 l 0.52916,-0.0453 1.51526,-7.58472 c 2.88678,-14.44994 3.51655,-17.75313 3.41583,-17.91611 -0.0557,-0.0901 -0.20441,-0.16375 -0.33056,-0.16375 -0.42037,0 -1.74612,-1.1947 -2.39204,-2.15559 l -0.63793,-0.949 -5.37139,2.13909 c -2.95426,1.17651 -6.35666,2.52641 -7.56088,2.99978 l -2.18949,0.86069 -0.76502,-0.86939 c -0.42076,-0.47817 -0.76503,-0.92575 -0.76503,-0.99463 0,-0.0689 0.1786,-0.18018 0.39688,-0.24734 0.21828,-0.0672 3.69094,-1.41243 7.71701,-2.98949 4.02608,-1.57706 7.48791,-2.91843 7.69295,-2.98083 0.29553,-0.0899 0.39518,-0.30231 0.48072,-1.02456 0.31557,-2.66457 2.58864,-4.81464 5.32203,-5.03405 2.3687,-0.19013 4.44534,1.00569 5.5427,3.19176 0.53294,1.06165 0.60561,1.36912 0.60448,2.55757 -0.001,1.73791 -0.61518,3.19832 -1.81527,4.32086 -0.75383,0.70512 -2.42832,1.5279 -3.10953,1.5279 -0.46656,0 -0.24868,-0.97219 -3.34035,14.90487 -0.92567,4.75368 -1.76091,8.97586 -1.85608,9.38262 -0.29637,1.2667 -0.24804,1.38929 0.77542,1.96689 1.84458,1.04101 2.80085,2.69114 2.82702,4.87827 0.0144,1.20405 -0.0576,1.57246 -0.49103,2.51077 -0.594,1.28605 -1.84232,2.54174 -3.06974,3.08787 -0.93039,0.41396 -3.12965,0.58435 -4.00707,0.31044 z m -45.04324,-2.81304 c -2.48727,-0.91968 -5.572228,-4.22536 -7.333833,-7.85854 -1.530417,-3.15638 -2.549925,-6.7443 -2.838703,-9.99016 l -0.11985,-1.34711 1.564026,-1.6515 c 1.54302,-1.62933 2.924416,-3.31565 3.772152,-4.60482 0.49684,-0.75555 0.59843,-0.77186 2.231218,-0.35837 1.77776,0.4502 7.35782,0.39806 9.27324,-0.0867 l 1.3689,-0.34641 1.30714,1.79364 c 0.71893,0.9865 2.02777,2.55508 2.90853,3.48573 1.82871,1.93229 1.7902,1.79685 1.34438,4.72718 -0.88764,5.83431 -3.91175,11.68552 -7.59844,14.70187 -2.10698,1.72387 -4.01842,2.22301 -5.87876,1.53514 z m -26.524792,-16.3223 c -1.698043,-0.46729 -2.783285,-1.20176 -3.653152,-2.47239 -1.523854,-2.22592 -1.421973,-5.06892 0.283311,-7.90582 1.328404,-2.20993 5.187912,-5.67697 8.880241,-7.97724 4.388725,-2.7341 11.338981,-5.32293 16.315954,-6.07736 2.288858,-0.34695 2.597488,0.20412 1.853148,3.30888 -1.326738,5.53411 -4.966225,11.74779 -9.04461,15.44185 -3.024928,2.73987 -6.639744,4.85636 -9.549582,5.59131 -1.60035,0.40421 -3.803433,0.44354 -5.08531,0.0908 z m 51.459702,-0.0872 c -1.8155,-0.48443 -2.64337,-0.80875 -4.26108,-1.66933 -1.59892,-0.85057 -4.22517,-2.75095 -5.65108,-4.08917 -3.82928,-3.59377 -7.19038,-9.34959 -8.59306,-14.71544 -0.65698,-2.51324 -0.66982,-3.60564 -0.0457,-3.88999 0.68514,-0.31217 5.05729,0.54345 8.2697,1.61837 7.22468,2.41746 13.19347,6.0347 16.88644,10.2336 2.39531,2.72347 3.27248,4.64833 3.15733,6.92852 -0.21801,4.31721 -4.764,6.91719 -9.76251,5.58344 z m -27.60486,-26.99069 c -2.216828,-0.20228 -4.20867,-0.62931 -4.603974,-0.98706 -0.735358,-0.66549 -0.552538,-3.13357 0.373763,-5.04581 0.679116,-1.40195 1.596953,-2.57774 2.668673,-3.41871 0.79949,-0.62734 0.87296,-0.74476 0.79151,-1.26497 -0.13669,-0.87296 -1.59441,-3.71126 -2.488621,-4.84556 -1.610902,-2.04339 -4.167099,-3.7676 -6.735158,-4.54302 -0.694409,-0.20967 -1.394523,-0.52704 -1.55581,-0.70526 -0.449753,-0.49697 -0.290674,-1.43086 0.299936,-1.76081 0.433809,-0.24235 0.595624,-0.23822 1.675695,0.0428 1.393158,0.36249 3.400693,1.27791 4.576299,2.08675 1.339622,0.92168 3.360009,2.94365 4.192269,4.19556 0.765878,1.15205 1.898518,3.52671 2.135258,4.47676 0.0858,0.34422 0.20815,0.46493 0.41043,0.40485 1.65581,-0.49183 3.51471,-0.55623 5.1465,-0.17828 0.41732,0.0967 0.47103,0.0323 0.77091,-0.92393 1.06623,-3.39978 3.98493,-6.85939 7.39651,-8.76725 1.23719,-0.69188 3.5525,-1.52099 4.2474,-1.52099 0.6116,0 1.15952,0.58467 1.15952,1.23731 0,0.58261 -0.66203,1.11706 -1.65346,1.33481 -0.79616,0.17487 -2.66805,1.05476 -3.59869,1.6916 -2.46199,1.68472 -4.25282,4.03106 -5.3972,7.07143 l -0.42742,1.13553 0.87574,0.68792 c 0.48165,0.37836 1.25239,1.20386 1.71276,1.83445 1.29709,1.77671 1.78286,3.17776 1.78451,5.14678 0.002,1.70056 -0.25298,1.89611 -3.0583,2.35081 -1.95443,0.31679 -8.38325,0.47558 -10.69905,0.26428 z"
       id="path1" /></g></svg>
