<?xml version="1.0" encoding="UTF-8" standalone="no"?>
<!-- Created with Inkscape (http://www.inkscape.org/) -->

<svg
   width="150mm"
   height="150.00002mm"
   viewBox="0 0 150 150.00002"
   version="1.1"
   id="svg1"
   xml:space="preserve"
   inkscape:export-filename="../../Desktop/firefly.svg"
   inkscape:export-xdpi="96"
   inkscape:export-ydpi="96"
   inkscape:version="1.4.3 (0d15f75, 2025-12-25)"
   sodipodi:docname="firefly.svg"
   xmlns:inkscape="http://www.inkscape.org/namespaces/inkscape"
   xmlns:sodipodi="http://sodipodi.sourceforge.net/DTD/sodipodi-0.dtd"
   xmlns="http://www.w3.org/2000/svg"
   xmlns:svg="http://www.w3.org/2000/svg"><sodipodi:namedview
     id="namedview1"
     pagecolor="#ffffff"
     bordercolor="#000000"
     borderopacity="0.25"
     inkscape:showpageshadow="2"
     inkscape:pageopacity="0.0"
     inkscape:pagecheckerboard="0"
     inkscape:deskcolor="#d1d1d1"
     inkscape:document-units="mm"
     inkscape:zoom="0.89887065"
     inkscape:cx="397.16504"
     inkscape:cy="560.70359"
     inkscape:window-width="2013"
     inkscape:window-height="1265"
     inkscape:window-x="0"
     inkscape:window-y="-311"
     inkscape:window-maximized="0"
     inkscape:current-layer="layer1"
     showguides="true"><inkscape:page
       x="0"
       y="0"
       width="150"
       height="150.00002"
       id="page2"
       margin="0"
       bleed="0" /></sodipodi:namedview><defs
     id="defs1" /><g
     inkscape:label="Layer 1"
     inkscape:groupmode="layer"
     id="layer1"
     transform="translate(-31.495543,-94.192267)"><rect
       style="fill:#0b1420;fill-opacity:1;stroke-width:0.264094"
       id="rect1"
       width="150"
       height="150"
       x="31.495544"
       y="94.192261" /><path
       style="fill:#f4f4f4;fill-opacity:1;stroke-width:0.451359"
       d="m 114.90139,204.76735 c -0.11132,-0.0448 -0.30812,-0.28589 -0.43734,-0.53578 -0.39069,-0.75552 -0.10925,-1.12289 1.86384,-2.4329 2.18926,-1.45354 3.68654,-2.8078 5.26518,-4.76226 2.08139,-2.57689 3.73823,-5.59188 4.72766,-8.60301 0.37755,-1.149 0.75841,-1.55241 1.46566,-1.55241 0.4642,0 1.09073,0.63542 1.09073,1.10621 0,0.52349 -0.96858,3.12014 -1.84013,4.93319 -2.42357,5.04165 -6.76331,9.69147 -10.79896,11.57056 -0.83348,0.38809 -0.98247,0.4189 -1.33664,0.2764 z m -6.04737,-5.1828 c -0.76576,-0.82034 -0.40662,-1.38891 1.31662,-2.08438 2.52152,-1.01765 4.9418,-2.98184 6.879,-5.58267 1.4028,-1.88337 2.36666,-3.82447 3.15401,-6.35184 0.60555,-1.94381 0.88561,-2.34694 1.63043,-2.34694 0.5233,0 1.15155,0.68135 1.15155,1.24889 0,0.68462 -1.17186,3.96823 -2.01612,5.64924 -1.12066,2.23137 -2.18051,3.69782 -3.94016,5.45173 -2.30423,2.29671 -5.36228,4.16167 -7.10053,4.33027 -0.60308,0.0585 -0.77326,0.009 -1.0748,-0.3143 z m -44.401714,-3.84296 c -1.386105,-0.45577 -2.767408,-1.73341 -3.35431,-3.10257 -1.08773,-2.53755 -0.144309,-5.33996 2.260974,-6.71613 0.470497,-0.26919 0.823685,-0.57575 0.78485,-0.68123 -0.110853,-0.30113 -1.677954,-7.95678 -3.207555,-15.66962 l -1.395891,-7.03865 -0.79998,-0.18809 c -1.712546,-0.40268 -2.990091,-1.3782 -3.70118,-2.8262 -0.390534,-0.79526 -0.442331,-1.07934 -0.440147,-2.41401 0.0018,-1.27923 0.06247,-1.63451 0.391355,-2.30211 0.518016,-1.05158 1.431079,-1.93677 2.52836,-2.45121 0.776708,-0.36416 1.10555,-0.42132 2.411999,-0.41928 1.336492,0.002 1.609294,0.053 2.342138,0.43727 1.560276,0.8181 2.632461,2.2878 2.869939,3.93395 0.07023,0.48688 0.223558,0.90003 0.360952,0.97266 0.214784,0.11355 7.976236,3.17558 12.537029,4.94609 0.98398,0.38197 1.7886,0.73033 1.788058,0.77411 -5.41e-4,0.0438 -0.310932,0.43392 -0.689757,0.86695 l -0.688765,0.78732 -0.780833,-0.29337 c -0.42945,-0.16136 -3.462619,-1.35758 -6.74037,-2.65827 -3.277742,-1.30069 -6.009782,-2.3649 -6.071202,-2.3649 -0.06139,0 -0.199582,0.21223 -0.307024,0.47162 -0.245711,0.5932 -1.508965,1.78533 -2.342436,2.21053 l -0.633626,0.32325 1.95507,9.68317 c 1.075282,5.32574 2.12396,10.47096 2.330394,11.43381 l 0.375332,1.75066 0.756279,0.10819 c 0.828839,0.11855 1.83166,0.58683 2.548535,1.19003 0.393387,0.33102 0.503067,0.35788 0.745961,0.18272 0.156631,-0.11295 0.774713,-0.55857 1.373531,-0.99025 0.598818,-0.43169 2.539075,-1.84684 4.311679,-3.14479 1.772604,-1.29793 3.280648,-2.35988 3.351205,-2.35988 0.07059,0 0.566022,0.23387 1.101009,0.5197 l 0.972705,0.51972 -1.935472,1.38543 c -1.064512,0.76199 -2.553717,1.83579 -3.309337,2.38623 -0.75562,0.55043 -2.199978,1.60023 -3.209686,2.33289 -1.82303,1.32281 -1.834675,1.33537 -1.671545,1.80334 0.245548,0.70435 0.06148,2.79181 -0.323083,3.66353 -0.42861,0.97166 -1.629496,2.14558 -2.692889,2.63242 -1.039326,0.47581 -2.842776,0.62047 -3.802266,0.30497 z m 81.223514,0.0563 c -2.38005,-0.74299 -4.06581,-3.20837 -3.8573,-5.64119 0.0456,-0.53178 0.12527,-1.07435 0.17709,-1.20572 0.0924,-0.23426 -1.28979,-1.25901 -8.29049,-6.14644 l -2.25771,-1.57619 0.98388,-0.50977 c 0.54112,-0.28037 1.06067,-0.51324 1.15454,-0.5175 0.0939,-0.004 2.27165,1.49157 4.8395,3.32404 l 4.66883,3.33175 0.81315,-0.60957 c 0.79783,-0.59809 1.6154,-0.91601 2.56466,-0.99731 l 0.47769,-0.0409 1.36785,-6.84686 c 2.60595,-13.04422 3.17445,-16.02607 3.08353,-16.1732 -0.0503,-0.0813 -0.18453,-0.14782 -0.2984,-0.14782 -0.37948,0 -1.57626,-1.07847 -2.15934,-1.94589 l -0.57587,-0.85668 -4.84885,1.931 c -2.66687,1.06206 -5.73827,2.28063 -6.82534,2.70795 l -1.9765,0.77696 -0.69059,-0.78481 c -0.37983,-0.43165 -0.69061,-0.83569 -0.69061,-0.89787 0,-0.0622 0.16123,-0.16265 0.35827,-0.22328 0.19705,-0.0607 3.33188,-1.27502 6.96628,-2.69866 3.63442,-1.42364 6.75948,-2.63452 6.94457,-2.69085 0.26678,-0.0812 0.35673,-0.2729 0.43395,-0.92489 0.28487,-2.40536 2.33681,-4.34626 4.8043,-4.54433 2.13826,-0.17163 4.01288,0.90786 5.00349,2.88126 0.48109,0.95837 0.5467,1.23593 0.54568,2.30876 -9.1e-4,1.56885 -0.55534,2.88719 -1.63868,3.90052 -0.6805,0.63653 -2.19209,1.37927 -2.80703,1.37927 -0.42117,0 -0.22449,-0.87762 -3.01539,13.45489 -0.83562,4.29123 -1.58961,8.10267 -1.67552,8.46986 -0.26754,1.14347 -0.22391,1.25414 0.69998,1.77555 1.66514,0.93973 2.52838,2.42934 2.55201,4.4037 0.013,1.08692 -0.052,1.41949 -0.44327,2.26652 -0.53621,1.16094 -1.66309,2.29447 -2.7711,2.78747 -0.83988,0.37369 -2.8252,0.5275 -3.61726,0.28024 z m -40.66134,-2.53938 c -2.24531,-0.83021 -5.030156,-3.81431 -6.620393,-7.09404 -1.381529,-2.84933 -2.301859,-6.08821 -2.562545,-9.0183 l -0.108191,-1.21606 1.411878,-1.49084 c 1.392912,-1.47083 2.639917,-2.9931 3.405191,-4.15685 0.4485,-0.68205 0.54021,-0.69678 2.01415,-0.32351 1.60483,0.4064 6.64205,0.35933 8.37113,-0.0783 l 1.23573,-0.31271 1.17998,1.61915 c 0.64899,0.89053 1.83051,2.30652 2.62558,3.14663 1.65081,1.74432 1.61605,1.62205 1.2136,4.26732 -0.80129,5.26673 -3.53121,10.54872 -6.85925,13.27164 -1.90201,1.55617 -3.6275,2.00675 -5.30686,1.3858 z m -23.944409,-14.7344 c -1.53286,-0.42183 -2.512526,-1.08485 -3.297773,-2.23187 -1.375607,-2.00938 -1.283638,-4.57581 0.255749,-7.13673 1.19918,-1.99494 4.683229,-5.1247 8.016362,-7.2012 3.961776,-2.46812 10.235901,-4.8051 14.728701,-5.48614 2.0662,-0.3132 2.3448,0.18426 1.67286,2.98699 -1.19766,4.99574 -4.483093,10.60494 -8.16472,13.93963 -2.730659,2.47333 -5.993822,4.38393 -8.620578,5.04738 -1.444665,0.36489 -3.433434,0.40039 -4.590601,0.082 z m 46.453599,-0.0787 c -1.63888,-0.4373 -2.38622,-0.73007 -3.84655,-1.50693 -1.44338,-0.76783 -3.81414,-2.48334 -5.10134,-3.69137 -3.45676,-3.24416 -6.49088,-8.44004 -7.75711,-13.28389 -0.59306,-2.26875 -0.60465,-3.25488 -0.0412,-3.51157 0.61849,-0.2818 4.56531,0.49058 7.46521,1.46093 6.52185,2.18229 11.90998,5.44764 15.24369,9.23806 2.16229,2.45852 2.95413,4.19613 2.85018,6.2545 -0.1968,3.89722 -4.30055,6.24427 -8.81279,5.04027 z m -24.9194,-24.36498 c -2.00118,-0.1826 -3.799248,-0.56809 -4.156101,-0.89104 -0.663814,-0.60075 -0.498779,-2.82873 0.337409,-4.55494 0.613045,-1.26557 1.441592,-2.32697 2.409062,-3.08613 0.72171,-0.56631 0.78803,-0.67231 0.71451,-1.14191 -0.1234,-0.78804 -1.43931,-3.35022 -2.246527,-4.37418 -1.454189,-1.8446 -3.761717,-3.40108 -6.079951,-4.10106 -0.626856,-0.18928 -1.258858,-0.47577 -1.404457,-0.63665 -0.405998,-0.44863 -0.262393,-1.29167 0.270761,-1.58952 0.391608,-0.21877 0.537677,-0.21504 1.512676,0.0386 1.25763,0.32722 3.069864,1.15359 4.131108,1.88374 1.209299,0.83202 3.03314,2.65729 3.78444,3.78741 0.69136,1.03998 1.71383,3.18363 1.92754,4.04125 0.0774,0.31074 0.1879,0.4197 0.3705,0.36547 1.49473,-0.44399 3.17279,-0.50212 4.64584,-0.16094 0.37672,0.0873 0.4252,0.0292 0.69591,-0.83405 0.96251,-3.06904 3.59727,-6.19209 6.67696,-7.91435 1.11684,-0.62457 3.20691,-1.37303 3.83421,-1.37303 0.5521,0 1.04672,0.5278 1.04672,1.11695 0,0.52593 -0.59763,1.00839 -1.49261,1.20495 -0.71871,0.15786 -2.4085,0.95215 -3.2486,1.52704 -2.22248,1.52083 -3.8391,3.63891 -4.87215,6.38351 l -0.38584,1.02506 0.79055,0.621 c 0.43479,0.34155 1.13055,1.08675 1.54613,1.65599 1.17091,1.60387 1.60942,2.86862 1.61091,4.64609 0.002,1.53513 -0.22837,1.71165 -2.76078,2.12212 -1.7643,0.28597 -7.56771,0.42931 -9.65822,0.23857 z"
       id="path1" /></g></svg>
