<svg xmlns="http://www.w3.org/2000/svg" viewBox="0 0 512 512" role="img" aria-labelledby="title desc">
  <title id="title">Firefly App Icon</title>
  <desc id="desc">A stylized firefly mark for the Firefly mesh chat application.</desc>
  <defs>
    <linearGradient id="bg" x1="64" x2="448" y1="48" y2="464" gradientUnits="userSpaceOnUse">
      <stop offset="0" stop-color="#254e74"/>
      <stop offset="1" stop-color="#0b1420"/>
    </linearGradient>
    <linearGradient id="glow" x1="208" x2="304" y1="194" y2="318" gradientUnits="userSpaceOnUse">
      <stop offset="0" stop-color="#ffef8c"/>
      <stop offset="1" stop-color="#f3c34d"/>
    </linearGradient>
  </defs>
  <rect width="512" height="512" rx="116" fill="url(#bg)"/>
  <path d="M122 184c34-56 88-88 134-88 28 0 52 12 72 34-40 2-74 18-104 50-20 22-35 47-46 76-28-12-46-34-56-72Z" fill="#d9ecff" opacity=".92"/>
  <path d="M390 184c-34-56-88-88-134-88-28 0-52 12-72 34 40 2 74 18 104 50 20 22 35 47 46 76 28-12 46-34 56-72Z" fill="#d9ecff" opacity=".92"/>
  <ellipse cx="256" cy="266" rx="62" ry="76" fill="#edf7ff"/>
  <ellipse cx="256" cy="296" rx="44" ry="52" fill="url(#glow)"/>
  <rect x="232" y="350" width="48" height="78" rx="24" fill="#edf7ff"/>
  <rect x="240" y="388" width="32" height="22" rx="11" fill="#9fd0ff" opacity=".85"/>
  <circle cx="226" cy="234" r="11" fill="#162231"/>
  <circle cx="286" cy="234" r="11" fill="#162231"/>
  <path d="M220 174c12-18 24-28 36-28s24 10 36 28" fill="none" stroke="#edf7ff" stroke-linecap="round" stroke-width="16"/>
  <path d="M226 434c10-8 20-12 30-12s20 4 30 12" fill="none" stroke="#f3c34d" stroke-linecap="round" stroke-width="12" opacity=".85"/>
</svg>
